<svg xmlns="http://www.w3.org/2000/svg" viewBox="0 0 200 120" width="200" height="120">
  <!-- Venezuelan flag arcs -->
  <path d="M10,25 Q60,10 110,20 Q140,25 160,15" stroke="#FFCC00" stroke-width="12" fill="none" stroke-linecap="round"/>
  <path d="M10,50 Q60,35 110,45 Q140,50 160,40" stroke="#003DA5" stroke-width="12" fill="none" stroke-linecap="round"/>
  <path d="M10,75 Q60,60 110,70 Q140,75 160,65" stroke="#CF142B" stroke-width="12" fill="none" stroke-linecap="round"/>
  <!-- Stars on yellow arc -->
  <g fill="#FFCC00" stroke="#000" stroke-width="0.3">
    <polygon points="40,18 41.2,21.6 45,22 42,24.4 42.8,28 40,26 37.2,28 38,24.4 35,22 38.8,21.6" transform="scale(0.5) translate(55,20)"/>
    <polygon points="40,18 41.2,21.6 45,22 42,24.4 42.8,28 40,26 37.2,28 38,24.4 35,22 38.8,21.6" transform="scale(0.5) translate(70,18)"/>
    <polygon points="40,18 41.2,21.6 45,22 42,24.4 42.8,28 40,26 37.2,28 38,24.4 35,22 38.8,21.6" transform="scale(0.5) translate(85,17)"/>
    <polygon points="40,18 41.2,21.6 45,22 42,24.4 42.8,28 40,26 37.2,28 38,24.4 35,22 38.8,21.6" transform="scale(0.5) translate(100,17)"/>
    <polygon points="40,18 41.2,21.6 45,22 42,24.4 42.8,28 40,26 37.2,28 38,24.4 35,22 38.8,21.6" transform="scale(0.5) translate(115,18)"/>
    <polygon points="40,18 41.2,21.6 45,22 42,24.4 42.8,28 40,26 37.2,28 38,24.4 35,22 38.8,21.6" transform="scale(0.5) translate(130,20)"/>
    <polygon points="40,18 41.2,21.6 45,22 42,24.4 42.8,28 40,26 37.2,28 38,24.4 35,22 38.8,21.6" transform="scale(0.5) translate(145,22)"/>
    <polygon points="40,18 41.2,21.6 45,22 42,24.4 42.8,28 40,26 37.2,28 38,24.4 35,22 38.8,21.6" transform="scale(0.5) translate(160,25)"/>
  </g>
  <!-- Text -->
  <text x="10" y="100" font-family="Arial, Helvetica, sans-serif" font-size="11" font-weight="bold" fill="#000">Gobierno</text>
  <text x="10" y="112" font-family="Arial, Helvetica, sans-serif" font-size="11" font-weight="bold" fill="#000">Bolivariano</text>
  <text x="105" y="112" font-family="Arial, Helvetica, sans-serif" font-size="11" font-weight="bold" fill="#000">de Venezuela</text>
</svg>
